<svg width="25" height="25" viewBox="0 0 25 25" fill="none" xmlns="http://www.w3.org/2000/svg">
<g clip-path="url(#clip0_36_40)">
<path d="M1.72126 22.4365C1.72126 22.3 1.72126 22.1943 1.72126 22.0887C1.72126 18.4959 1.71982 14.9038 1.72197 11.311C1.72269 9.91742 2.61604 8.87026 3.97943 8.65968C4.13754 8.63525 4.30069 8.6374 4.46168 8.6374C6.5948 8.63596 8.72863 8.63668 10.8618 8.63668H11.1715V7.63625C11.1334 7.61828 11.0795 7.59169 11.0249 7.56797C9.72117 7.0045 9.08942 5.70724 9.44303 4.32086C9.67589 3.40882 10.0985 2.57728 10.5441 1.75795C10.7928 1.30157 11.0501 0.848072 11.3318 0.411817C11.6703 -0.110682 12.4084 -0.145179 12.7376 0.372288C13.5023 1.57684 14.2095 2.81517 14.6256 4.19436C15.0683 5.66052 14.3726 7.08284 12.9201 7.64559V8.6374H13.2421C15.3752 8.6374 17.5091 8.6374 19.6422 8.6374C21.2787 8.6374 22.3783 9.73487 22.3783 11.3692C22.379 14.944 22.3783 18.5182 22.3783 22.093V22.4358C22.66 22.4358 22.918 22.4337 23.1753 22.4358C23.7165 22.4409 24.1053 22.8088 24.0989 23.3091C24.0924 23.7978 23.7086 24.1586 23.1796 24.1593C20.5082 24.1614 17.8368 24.16 15.1661 24.16C10.46 24.16 5.75391 24.16 1.04783 24.16C0.931398 24.16 0.812812 24.165 0.699256 24.1442C0.266595 24.0623 -0.0352609 23.6576 0.00139306 23.2235C0.0373283 22.7988 0.384463 22.4581 0.81928 22.4394C1.10532 22.4272 1.39209 22.4373 1.71982 22.4373L1.72126 22.4365ZM20.6577 22.4229C20.6577 20.8827 20.6606 19.3741 20.6498 17.8656C20.6498 17.7765 20.5578 17.66 20.4759 17.6047C19.1391 16.7013 17.798 15.8043 16.4562 14.9088C15.9832 14.5933 15.6469 14.6163 15.2135 14.98C14.6019 15.4931 13.9939 16.0106 13.3765 16.5166C12.2582 17.4336 10.9609 17.4157 9.85341 16.4799C9.26407 15.9819 8.67329 15.4859 8.08036 14.9922C7.64483 14.6292 7.29482 14.6127 6.837 14.9311C5.77044 15.6735 4.70676 16.4217 3.63589 17.1591C3.48352 17.264 3.43752 17.379 3.43824 17.5565C3.44471 19.0924 3.44184 20.6283 3.44256 22.1642C3.44256 22.2504 3.45046 22.3359 3.45405 22.4229H20.657H20.6577ZM20.6563 15.6441C20.6563 14.1154 20.6635 12.6514 20.652 11.1881C20.6484 10.6986 20.2603 10.3616 19.7414 10.3616C14.6134 10.3601 9.48543 10.3601 4.35747 10.3616C3.80263 10.3616 3.44543 10.7173 3.44327 11.2693C3.43968 12.5091 3.44184 13.7481 3.44327 14.9879C3.44327 15.0432 3.4598 15.0978 3.47274 15.1762C4.27769 14.6142 5.05605 14.0701 5.83584 13.5275C6.96134 12.7455 8.14936 12.7994 9.19579 13.6777C9.79376 14.1793 10.3903 14.6824 10.9897 15.1819C11.436 15.5542 11.8263 15.5607 12.269 15.1949C12.905 14.6688 13.5332 14.1341 14.1685 13.6065C15.1179 12.8174 16.2988 12.7477 17.3323 13.4211C17.7757 13.71 18.2127 14.0083 18.6518 14.3022C19.3051 14.7392 19.9584 15.1769 20.657 15.6441H20.6563ZM12.1295 2.62687C12.0922 2.63118 12.0555 2.63549 12.0181 2.6398C11.6689 3.33048 11.2786 4.00606 11.0953 4.76789C10.9609 5.32417 11.2269 5.81792 11.7149 5.98825C12.085 6.11762 12.4235 6.04719 12.7146 5.78773C13.0459 5.49163 13.1285 5.0985 12.9848 4.70608C12.7275 4.00319 12.4177 3.31898 12.1295 2.62759V2.62687Z" fill="white"/>
</g>
<defs>
<clipPath id="clip0_36_40">
<rect width="24.1003" height="24.16" fill="white"/>
</clipPath>
</defs>
</svg>
