<svg width="24" height="24" viewBox="0 0 24 24" fill="none" xmlns="http://www.w3.org/2000/svg">
<g clip-path="url(#clip0_24_99)">
<path d="M22.65 14.39L12 22.13L1.34999 14.39C1.20722 14.285 1.10131 14.1375 1.04743 13.9687C0.993542 13.7999 0.99444 13.6183 1.04999 13.45L2.26999 9.67L4.70999 2.16C4.73366 2.09881 4.77133 2.04401 4.81999 2C4.89923 1.92762 5.00267 1.88749 5.10999 1.88749C5.21731 1.88749 5.32075 1.92762 5.39999 2C5.45137 2.04966 5.48924 2.11162 5.50999 2.18L7.94999 9.67H16.05L18.49 2.16C18.5137 2.09881 18.5513 2.04401 18.6 2C18.6792 1.92762 18.7827 1.88749 18.89 1.88749C18.9973 1.88749 19.1008 1.92762 19.18 2C19.2314 2.04966 19.2692 2.11162 19.29 2.18L21.73 9.69L23 13.45C23.0505 13.6235 23.0437 13.8086 22.9807 13.978C22.9176 14.1473 22.8017 14.2918 22.65 14.39Z" stroke="#2BBF7D" stroke-width="2" stroke-linecap="round" stroke-linejoin="round"/>
</g>
<defs>
<clipPath id="clip0_24_99">
<rect width="24" height="24" fill="white"/>
</clipPath>
</defs>
</svg>
