<svg width="101" height="38" viewBox="0 0 101 38" fill="none" xmlns="http://www.w3.org/2000/svg">
<path d="M51.04 10.416H59.752C60.728 10.416 61.6 10.608 62.368 10.992C63.136 11.36 63.728 11.888 64.144 12.576C64.576 13.264 64.792 14.056 64.792 14.952C64.792 15.672 64.64 16.328 64.336 16.92C64.032 17.512 63.608 18 63.064 18.384C62.52 18.752 61.912 18.984 61.24 19.08V19.368C61.896 19.496 62.424 19.768 62.824 20.184C63.224 20.584 63.624 21.264 64.024 22.224C64.44 23.184 65.032 24.776 65.8 27H62.344C62.136 26.392 61.92 25.784 61.696 25.176C61.488 24.552 61.28 23.968 61.072 23.424C60.88 22.88 60.688 22.432 60.496 22.08C60.304 21.712 60.096 21.408 59.872 21.168C59.616 20.912 59.32 20.728 58.984 20.616C58.648 20.488 58.248 20.424 57.784 20.424H54.424V27H51.04V10.416ZM58.696 18C59.24 18 59.712 17.912 60.112 17.736C60.528 17.544 60.848 17.264 61.072 16.896C61.296 16.528 61.408 16.064 61.408 15.504C61.408 14.672 61.168 14.056 60.688 13.656C60.224 13.256 59.536 13.056 58.624 13.056H54.424V18H58.696ZM68.4541 10.416H80.8381V13.272H71.8381V17.16H80.1421V19.824H71.8381V24.144H81.0301V27H68.4541V10.416ZM91.6647 27.384C90.0487 27.384 88.6327 27.008 87.4167 26.256C86.2007 25.488 85.2647 24.456 84.6087 23.16C83.9527 21.848 83.6247 20.384 83.6247 18.768C83.6247 17.12 83.9527 15.632 84.6087 14.304C85.2647 12.976 86.2007 11.936 87.4167 11.184C88.6327 10.416 90.0647 10.032 91.7127 10.032C92.9287 10.032 94.0327 10.24 95.0247 10.656C96.0327 11.056 96.8647 11.656 97.5207 12.456C98.1927 13.24 98.6247 14.176 98.8167 15.264H95.5767C95.4007 14.768 95.1367 14.344 94.7847 13.992C94.4487 13.624 94.0167 13.344 93.4887 13.152C92.9767 12.944 92.4007 12.84 91.7607 12.84C90.6887 12.84 89.7927 13.104 89.0727 13.632C88.3687 14.144 87.8487 14.848 87.5127 15.744C87.1767 16.624 87.0087 17.608 87.0087 18.696C87.0087 19.768 87.1767 20.752 87.5127 21.648C87.8487 22.528 88.3767 23.232 89.0967 23.76C89.8167 24.288 90.7127 24.552 91.7847 24.552C92.7287 24.552 93.5287 24.368 94.1847 24C94.8567 23.632 95.3447 23.096 95.6487 22.392C95.9527 21.672 96.0487 20.808 95.9367 19.8L97.3767 21H92.1207V18.504H99.0567V19.944C99.0567 21.672 98.7047 23.096 98.0007 24.216C97.3127 25.32 96.4087 26.128 95.2887 26.64C94.1847 27.136 92.9767 27.384 91.6647 27.384Z" fill="white"/>
<g clip-path="url(#clip0_5_91)">
<path fill-rule="evenodd" clip-rule="evenodd" d="M30.7801 34.6979C29.4632 35.6741 27.727 35.8183 26.3839 35.1893C26.3839 35.1893 26.017 35.0452 25.6763 34.6521C25.3815 34.2852 17.9584 25.9121 17.9584 25.9121L17.9322 25.8859C20.2253 26.2986 22.7477 25.2045 24.0384 23.1997C25.3356 21.2931 25.2832 18.5872 24.0646 16.6807C22.597 14.6038 19.7404 13.9224 17.3491 14.2369C13.1953 14.82 10.2142 18.5086 9.29044 22.3676C8.34044 26.7638 9.02182 30.911 10.5091 34.8159C10.8498 35.6479 11.3149 36.4997 11.8784 37.2335C7.50837 35.3269 3.64941 31.8152 1.61837 27.1045C-0.628871 22.0269 -0.583009 15.6062 2.08354 10.4566C4.1801 6.48621 7.89492 2.79759 12.4877 1.23828C17.3032 -0.740339 23.7763 -0.321028 28.4608 2.31276C34.1542 5.14311 38.4522 12.1993 38.4784 18.4955C38.6749 25.0145 35.7922 30.9176 30.7866 34.7045" fill="#BFA161"/>
<path fill-rule="evenodd" clip-rule="evenodd" d="M14.8069 37.1679C12.6842 34.8748 10.9742 31.8938 12.2649 28.7948C13.4114 26.4297 14.44 24.0121 14.9249 21.28C15.1214 24.1366 16.8576 26.6721 17.6831 29.4107C17.9976 30.7276 18.0238 32.0969 17.5128 33.4597C16.9493 34.9469 16.0452 36.2179 14.9707 37.3645" fill="#BFA161"/>
</g>
<defs>
<clipPath id="clip0_5_91">
<rect width="38.6552" height="38" fill="white"/>
</clipPath>
</defs>
</svg>
