<svg width="511" height="617" viewBox="0 0 511 617" fill="none" xmlns="http://www.w3.org/2000/svg">
<path d="M208.94 345.368C238.497 328.447 254.433 270.198 242.562 240.419C229.447 207.535 147.438 212.53 138.028 220.548C128.618 228.567 205.548 254.226 195.051 284.484C183.392 318.069 124.848 318.115 126.443 332.456C128.01 346.566 174.774 364.926 208.94 345.368Z" stroke="#E2E0EF" stroke-width="0.544335" stroke-miterlimit="10"/>
<path d="M218.193 349.506C252.838 334.76 267.87 264.253 252.599 231.037C235.29 193.415 146.194 207.359 132.968 213.313C121.567 218.438 195.576 252.944 186.728 289.506C177.124 329.23 124.323 335.681 128.268 344.898C132.507 354.778 177.539 366.769 218.193 349.506Z" stroke="#E2E0EF" stroke-width="0.544335" stroke-miterlimit="10"/>
<path d="M227.446 353.635C267.123 341.11 281.28 258.317 262.635 221.663C241.096 179.267 145.659 202.308 127.907 206.069C115.004 208.834 185.539 251.617 178.414 294.548C170.811 340.335 122.608 353.764 130.092 357.275C135.677 363.497 180.156 368.575 227.446 353.635Z" stroke="#E2E0EF" stroke-width="0.544335" stroke-miterlimit="10"/>
<path d="M236.7 357.801C281.382 347.404 294.663 252.419 272.644 212.308C246.838 165.23 143.862 190.603 122.82 198.852C109.641 204.023 175.438 250.308 170.074 299.58C164.424 351.432 121.465 371.598 131.889 369.69C139.511 371.967 182.783 370.326 236.7 357.801Z" stroke="#E2E0EF" stroke-width="0.544335" stroke-miterlimit="10"/>
<path d="M245.954 361.911C295.622 353.616 308.027 246.483 282.71 202.898C252.627 151.101 144.461 185.037 117.789 191.59C102.821 195.276 165.364 248.935 161.779 304.575C158.093 362.492 119.383 387.073 133.743 382.068C142.941 378.87 185.392 372.031 245.954 361.911Z" stroke="#E2E0EF" stroke-width="0.544335" stroke-miterlimit="10"/>
<path d="M255.197 366.05C309.86 359.81 321.381 240.567 292.745 193.525C258.358 137.019 144.893 189.341 112.718 184.309C96.0458 181.719 155.225 247.553 153.456 309.571C151.612 373.534 117.972 405.34 135.566 394.427C146.516 387.681 187.99 373.709 255.197 366.05Z" stroke="#E2E0EF" stroke-width="0.544335" stroke-miterlimit="10"/>
<path d="M264.45 370.179C324.099 365.994 334.726 234.695 302.791 184.143C264.081 122.945 144.497 185.544 107.667 177.111C89.649 172.982 145.096 246.235 145.151 314.631C145.206 384.676 116.856 423.57 137.4 406.87C150.285 396.39 190.589 375.368 264.45 370.179Z" stroke="#E2E0EF" stroke-width="0.544335" stroke-miterlimit="10"/>
<path d="M273.705 374.317C338.341 372.16 348.046 228.769 312.829 174.76C269.825 108.871 144.001 181.885 102.609 169.866C83.1992 164.235 134.941 244.907 136.83 319.654C138.756 395.745 115.817 441.653 139.227 419.266C154.12 405.036 193.208 376.999 273.705 374.317Z" stroke="#E2E0EF" stroke-width="0.544335" stroke-miterlimit="10"/>
<path d="M282.958 378.455C352.579 378.317 361.409 222.871 322.865 165.378C275.548 94.7977 143.419 178.281 97.5484 162.613C76.7006 155.489 124.774 243.553 128.516 324.667C132.304 406.824 114.793 459.653 141.051 431.662C157.991 413.626 195.797 378.621 282.958 378.455Z" stroke="#E2E0EF" stroke-width="0.544335" stroke-miterlimit="10"/>
<path d="M292.211 382.584C366.865 384.427 374.745 216.981 332.902 156.004C281.29 80.7422 142.765 174.779 92.4889 155.387C70.1664 146.779 114.609 242.225 120.203 329.699C125.844 417.92 113.751 477.634 142.885 444.077C161.871 422.187 198.405 380.225 292.211 382.584Z" stroke="#E2E0EF" stroke-width="0.544335" stroke-miterlimit="10"/>
<path d="M301.465 386.722C381.077 390.602 388.1 211.092 342.939 146.622C286.976 66.6779 142.018 171.286 87.4289 148.143C63.6041 138.06 104.424 240.889 111.88 334.723C119.373 429.017 112.747 495.57 144.71 456.473C165.76 430.731 201.023 381.819 301.465 386.722Z" stroke="#E2E0EF" stroke-width="0.544335" stroke-miterlimit="10"/>
<path d="M310.719 390.861C395.326 396.741 401.4 205.203 352.976 137.24C292.682 52.6229 141.309 167.82 82.3694 140.927C57.0332 129.351 94.2496 239.544 103.567 339.774C112.904 440.132 111.724 513.515 146.535 468.897C169.641 439.266 203.641 383.414 310.719 390.861Z" stroke="#E2E0EF" stroke-width="0.544335" stroke-miterlimit="10"/>
<path d="M319.971 394.99C409.583 402.87 414.726 199.276 363.012 127.867C298.386 38.5676 140.525 164.364 77.2992 133.664C50.4237 120.613 84.0549 238.226 95.2438 344.778C106.433 451.33 110.7 531.404 148.359 481.303C173.529 447.791 206.257 384.99 319.971 394.99Z" stroke="#E2E0EF" stroke-width="0.544335" stroke-miterlimit="10"/>
<path d="M329.224 399.128C423.841 408.999 428.053 193.433 373.058 118.484C304.09 24.4756 139.704 160.88 72.2483 126.42C43.8153 111.885 73.8704 236.898 86.9303 349.801C99.9532 462.307 109.667 549.293 150.193 493.681C177.418 456.307 208.874 386.575 329.224 399.128Z" stroke="#E2E0EF" stroke-width="0.544335" stroke-miterlimit="10"/>
<path d="M338.479 403.266C438.101 415.128 441.234 187.654 383.069 109.102C309.585 10.5952 138.83 157.488 67.1624 119.185C37.1718 103.157 63.651 235.571 78.591 354.824C93.448 473.404 108.609 567.191 151.991 506.086C181.309 464.823 211.512 388.142 338.479 403.266Z" stroke="#E2E0EF" stroke-width="0.544335" stroke-miterlimit="10"/>
<path d="M347.731 407.395C452.357 421.248 454.569 181.765 393.132 99.7379C315.335 -3.4874 138.009 154.115 62.1291 111.959C30.5624 94.4476 53.484 234.262 70.3042 359.884C86.9861 484.547 107.604 585.109 153.843 518.528C185.198 473.34 214.138 389.718 347.731 407.395Z" stroke="#E2E0EF" stroke-width="0.544335" stroke-miterlimit="10"/>
<path d="M356.985 411.533C466.662 427.368 467.915 175.866 403.169 90.3462C321.059 -17.4874 137.142 150.632 57.0692 104.706C23.8896 85.6919 43.0692 232.945 61.9908 364.879C80.2856 495.644 106.571 602.961 155.668 530.888C189.087 481.846 216.773 391.285 356.985 411.533Z" stroke="#E2E0EF" stroke-width="0.544335" stroke-miterlimit="10"/>
<path d="M366.238 415.671C480.919 433.284 481.26 169.968 413.205 80.9634C326.781 -31.6075 136.257 147.203 51.9995 97.461C17.2808 76.9634 32.9213 231.617 53.6677 369.902C73.8427 506.74 105.538 620.832 157.501 543.293C192.976 490.353 219.446 392.593 366.238 415.671Z" stroke="#E2E0EF" stroke-width="0.544335" stroke-miterlimit="10"/>
<path d="M375.493 419.801C495.179 439.45 494.589 164.079 423.243 71.5813C332.516 -45.6715 135.365 143.784 46.9413 90.2172C10.6373 68.2265 22.7663 230.309 45.356 374.925C67.402 517.837 104.499 638.712 159.328 555.689C196.894 498.814 222.074 394.216 375.493 419.801Z" stroke="#E2E0EF" stroke-width="0.544335" stroke-miterlimit="10"/>
<path d="M384.746 423.939C509.436 445.616 507.943 158.18 433.28 62.2079C338.239 -59.7086 134.452 140.355 41.881 82.9819C3.98261 59.489 12.5632 228.954 37.0423 379.92C61.0054 528.906 103.613 656.656 161.152 568.067C200.866 507.431 224.7 395.847 384.746 423.939Z" stroke="#E2E0EF" stroke-width="0.544335" stroke-miterlimit="10"/>
<path d="M393.998 428.077C523.693 451.81 521.315 152.272 443.316 52.8255C343.961 -73.8006 133.538 136.926 36.8201 75.7747C-2.68203 50.7794 2.4516 227.663 28.7187 385.008C54.5159 540.04 102.497 674.5 162.976 580.5C204.699 515.892 227.308 397.432 393.998 428.077Z" stroke="#E2E0EF" stroke-width="0.544335" stroke-miterlimit="10"/>
<path d="M164.811 592.897C208.534 524.362 229.963 399.1 403.252 432.206C537.961 457.948 534.634 146.392 453.362 43.4431C349.685 -87.8742 132.627 133.498 31.7608 68.5029C-49.8056 15.9317 36.9497 793.329 164.811 592.897Z" stroke="#E2E0EF" stroke-width="0.544335" stroke-miterlimit="10"/>
</svg>
